# xmcd
#
# Track frame offsets: 
#        150
#        11703
#        25132
#        47643
#        72703
#        94833
#        108927
#        122101
#        133512
#        148655
#        161700
#        172152
#        193042
#        231390
#        256798
#        298859
#
# Disc length: 4396 seconds
#
# Revision: 1
# Processed by: cddbd v1.5.2PL0 Copyright (c) Steve Scherf et al.
# Submitted via: ExactAudioCopyFreeDBPlugin 1.0
#
DISCID=f2112a10
DTITLE=Hear Me Howling! Blues, Ballads, and Beyond - Hear Me Howling!  C
DTITLE=D 4
DYEAR=2010
DGENRE=Blues
TTITLE0=Vern and Ray  - Sweetheart You Done Me Wrong (Unreleased)
TTITLE1=Vern and Ray  - The Touch Of God`s Hand (Unreleased)
TTITLE2=Big Mama Thornton  - 'Fore Day In The Mornin' (Unreleased)
TTITLE3=Big Mama Thornton  - Ball And Chain (Unreleased)
TTITLE4=Big Mama Thornton  - Hound Dog (Unreleased) 
TTITLE5=John Semien and The Opelousas Playboys  - Monsieur Leonard (Unre
TTITLE5=leased)
TTITLE6=John Semien and The Opelousas Playboys  - Chi Ca Nai ( Slow Drag
TTITLE6=) (1st Time on CD)
TTITLE7=John Semien and The Opelousas Playboys  - Bye Bye Rosa (Unreleas
TTITLE7=ed)
TTITLE8=Clifton Chenier  - Mr. Charlie (Unreleased)
TTITLE9=Clifton Chenier  - Louisiana Rock
TTITLE10=Notes From The Underground  - What Am I Doing Here? (1st Time
TTITLE10=on CD)
TTITLE11=Stanley Willis  - To Be A Thief (Unreleased)
TTITLE12=NOW Creative Arts Ensemble  - Pretty Good (1st Time on CD)
TTITLE13=Jerry Hahn - In The Breeze
TTITLE14=Smiley Winters  - To 'Trane ( Aka: Two Trains )
TTITLE15=Sonny Simmons  - The Beauty Of Isis
EXTD=YEAR: 2010
EXTT0=
EXTT1=
EXTT2=
EXTT3=
EXTT4=
EXTT5=
EXTT6=
EXTT7=
EXTT8=
EXTT9=
EXTT10=
EXTT11=
EXTT12=
EXTT13=
EXTT14=
EXTT15=
PLAYORDER=
